<svg width="28" height="41" viewBox="0 0 28 41" fill="none" xmlns="http://www.w3.org/2000/svg">
<path d="M14.0359 0.314819C0.331186 0.314819 0.0913391 1.60963 0.0913391 11.7222C0.0913391 21.8348 0.331186 23.1296 14.0359 23.1296C27.7407 23.1296 27.9805 21.8348 27.9805 11.7222C27.9805 1.60963 27.7407 0.314819 14.0359 0.314819ZM18.5052 12.217L12.244 15.3222C11.696 15.5919 11.247 15.2896 11.247 14.6467V8.79778C11.247 8.1563 11.696 7.8526 12.244 8.12223L18.5052 11.2274C19.0532 11.5 19.0532 11.9444 18.5052 12.217Z" fill="white"/>
<path d="M0.0913391 13.6482C0.0913391 11.1936 1.9643 9.20371 4.27472 9.20371C6.58514 9.20371 8.4581 11.1936 8.4581 13.6482V35.8704C8.4581 38.325 6.58514 40.3148 4.27472 40.3148C1.9643 40.3148 0.0913391 38.325 0.0913391 35.8704V13.6482Z" fill="white"/>
</svg>
